<svg width="2095" height="1291" viewBox="0 0 2095 1291" fill="none" xmlns="http://www.w3.org/2000/svg">
<path d="M2234.75 16.8116C2122.29 20.2848 1892.72 11.4516 1691.67 57.8815M1535.26 110.152C1432.82 158.303 1354.06 231.952 1328.53 344.806C1263.77 631.009 1439.37 307.621 1535.26 110.152ZM1535.26 110.152C1583.21 87.6085 1636.36 70.654 1691.67 57.8815M1524.86 110.152C922.395 486.262 1047.78 164.097 1185.78 -44L713.258 -11.6534L358.864 204.422M358.864 204.422L539.343 535.651H835.218M358.864 204.422L309.096 1056.43C385.845 1042.2 537.593 1013.73 530.592 1013.73C523.592 1013.73 366.156 946.022 288.313 912.166L539.343 812.538M921.082 535.651L1063.82 307.931L940.224 242.591C811.701 243.238 554.328 240.521 553.015 224.477C551.375 204.422 789.278 67.9193 797.482 65.9785C804.045 64.4258 958.454 94.7803 1034.84 110.152L1027.73 234.828L1115.23 330.574L1266.73 344.806L1397.44 110.152L1646.82 -44H1824.02M921.082 535.651L981.242 551.825L1153.52 414.028L1297.9 496.835M921.082 535.651H835.218M1824.02 -44H1909.89H2234.75L2021.45 65.9785L1824.02 -44ZM1691.67 57.8815L1524.86 -44L1412.75 16.8116L1509 307.931L1466.35 511.068M1466.35 511.068L1445.56 694.15M1466.35 511.068L1382.12 503.952M1297.9 496.835L1382.12 503.952M1297.9 496.835L1445.56 712.911L1382.12 503.952M1466.35 828.712L1328.53 606.814L1300.02 798.306M1297.9 812.538L1452.67 700.619L1466.35 812.538L1382.12 1143.77L1300.02 798.306M1297.9 812.538L1300.02 798.306M1297.9 812.538L1244.3 1131.48M1382.12 1158L1115.23 1143.77L921.082 1107.54L893.737 924.457L950.615 798.306L811.154 712.911L940.224 635.279L848.891 551.825L835.218 535.651M530.592 535.651L439.688 694.15M539.343 812.538L273 635.279L435.978 700.619L439.688 694.15M539.343 812.538C532.415 752.805 518.56 628.033 518.56 606.814C518.56 585.594 465.979 656.196 439.688 694.15M2509.84 1119.83L2448.04 242.591L2570 269.115L2509.84 1119.83Z" stroke="#BBB7B7" stroke-opacity="0.38"/>
<path d="M332.417 1787.36C443.523 1783.82 669.97 1800.7 869.554 1733.46M1025.21 1656.69C1127.47 1585.34 1206.95 1475.01 1234.81 1304.49C1305.45 872.046 1124.51 1359.11 1025.21 1656.69ZM1025.21 1656.69C977.328 1690.1 924.458 1714.96 869.554 1733.46M1035.47 1656.85C1639.09 1096.47 1507.75 1582.45 1366.62 1895.48L1833.9 1853.72L2188.86 1531.91M2188.86 1531.91L2018.44 1027.53L1726.32 1023.01M2188.86 1531.91L2257.96 242.367C2181.86 262.748 2031.37 303.537 2038.28 303.644C2045.19 303.751 2199.04 408.701 2275.1 461.163L2024.93 608.205M1641.55 1021.69L1495.28 1364.38L1615.78 1465.22C1742.68 1466.2 1996.72 1474.25 1997.64 1498.57C1998.79 1528.96 1760.71 1732.05 1752.57 1734.86C1746.05 1737.12 1594.32 1688.79 1519.26 1664.34L1529.21 1475.64L1445.06 1329.3L1295.82 1305.43L1161.27 1658.8L911.442 1888.44L736.497 1885.73M1641.55 1021.69L1582.53 996.282L1409.22 1202.33L1268.61 1074.72M1641.55 1021.69L1726.32 1023.01M736.497 1885.73L651.724 1884.42L330.992 1879.45L544.152 1716.16L736.497 1885.73ZM869.554 1733.46L1031.85 1890.3L1143.97 1799.92L1055.76 1357.57L1102.64 1050.59M1102.64 1050.59L1127.45 773.647M1102.64 1050.59L1185.62 1062.66M1268.61 1074.72L1185.62 1062.66M1268.61 1074.72L1127.89 745.234L1185.62 1062.66M1110.08 569.546L1240.95 907.698L1273.58 618.135M1276.01 596.613L1120.58 763.741L1109.7 594.039L1200.62 93.7064L1273.58 618.135M1276.01 596.613L1273.58 618.135M1276.01 596.613L1336.4 114.427M1200.95 72.1524L1464.12 97.7848L1654.95 155.616L1677.66 433.297L1618.55 623.474L1754.23 754.929L1624.98 870.524L1713.2 998.304L1726.32 1023.01M2027.07 1027.66L2120.54 789.018M2024.93 608.205L2283.73 880.72L2124.35 779.277L2120.54 789.018M2024.93 608.205C2030.37 698.772 2041.12 887.94 2040.62 920.075C2040.12 952.21 2093.69 846.093 2120.54 789.018M86.6755 112.723L127.127 1442.18L7.33948 1400.14L86.6755 112.723Z" stroke="#BBB7B7" stroke-opacity="0.46"/>
</svg>
