<svg width="72" height="58" viewBox="0 0 72 58" fill="none" xmlns="http://www.w3.org/2000/svg">
<g clip-path="url(#clip0_1_24)">
<path d="M46.5 33.8333H44.13L43.29 33.1808C46.23 30.4258 48 26.8492 48 22.9583C48 14.2825 39.27 7.25 28.5 7.25C17.73 7.25 9 14.2825 9 22.9583C9 31.6342 17.73 38.6667 28.5 38.6667C33.33 38.6667 37.77 37.2408 41.19 34.8725L42 35.5492V37.4583L57 49.5175L61.47 45.9167L46.5 33.8333ZM28.5 33.8333C21.03 33.8333 15 28.9758 15 22.9583C15 16.9408 21.03 12.0833 28.5 12.0833C35.97 12.0833 42 16.9408 42 22.9583C42 28.9758 35.97 33.8333 28.5 33.8333Z" fill="black"/>
</g>
<defs>
<clipPath id="clip0_1_24">
<rect width="72" height="58" fill="white"/>
</clipPath>
</defs>
</svg>
